<svg width="300" height="151" viewBox="0 0 300 151" fill="none" xmlns="http://www.w3.org/2000/svg">
<path d="M26.4048 79.9139C25.8047 83.6241 24.168 86.6276 21.4948 88.9833C18.8216 91.3391 15.6574 92.5169 11.8931 92.5169C8.40153 92.5169 5.56465 91.5157 3.32788 89.5134C1.09111 87.511 0 84.9786 0 81.9162C0 81.3862 0.109111 80.5617 0.272777 79.5016L3.38243 60.3614C3.60066 59.0069 4.69177 58.0057 6.0011 58.0057H12.9296L9.43809 79.266C9.38353 79.6194 9.32897 79.855 9.32897 80.1494C9.32897 81.1506 9.60175 81.9162 10.2564 82.5051C10.8565 83.0941 11.6749 83.4474 12.6569 83.4474C13.8025 83.4474 14.7845 83.094 15.6574 82.3284C16.5303 81.5628 17.0758 80.5617 17.2395 79.3838L20.7311 58.0646H29.8964L26.4048 79.9139Z" fill="#EB4C39"/>
<path d="M52.1548 83.268L50.7364 92.043H29.1324L34.3152 60.3587C34.5334 59.0042 35.6245 58.0619 36.8793 58.0619H43.8624L39.7162 83.3269H52.1548V83.268Z" fill="#EB4C39"/>
<path d="M79.2687 66.778H71.0309L66.8847 92.043H57.7193L61.8656 66.778H53.6277L54.6642 60.4176C54.8825 59.0631 55.9736 58.0619 57.2829 58.0619H80.7417L79.2687 66.778Z" fill="#EB4C39"/>
<path d="M87.3432 92.0431H78.1779L83.3606 60.3588C83.5788 59.0042 84.6699 58.0031 85.9793 58.0031H92.9078L87.3432 92.0431Z" fill="#EB4C39"/>
<path d="M201.146 60.8888C203.164 62.7734 204.201 65.3058 204.201 68.4271C204.201 69.2516 204.146 69.9583 204.037 70.665L200.436 92.5142H191.271L192.635 84.4459H184.779L183.47 92.5142H174.195L177.796 70.665C178.396 67.0136 180.142 64.0101 182.979 61.5955C185.816 59.2398 189.143 58.0031 192.962 58.0031C196.399 58.0031 199.073 58.9453 201.146 60.8888ZM193.781 76.9076L194.654 71.7251C194.763 71.2539 194.763 70.7828 194.763 70.4294C194.763 69.4283 194.49 68.6038 193.835 68.0148C193.235 67.4259 192.417 67.0725 191.435 67.0725C190.289 67.0725 189.307 67.4259 188.434 68.1915C187.561 68.9571 187.07 69.9583 186.852 71.1361L185.925 76.8487H193.781V76.9076Z" fill="#26CFCC"/>
<path d="M145.172 83.7385L143.753 92.5135H122.149L127.332 60.7703C127.55 59.4158 128.641 58.4735 129.896 58.4735H136.934L132.788 83.7385H145.172Z" fill="#26CFCC"/>
<path d="M160.284 67.2476L159.629 71.3112H172.559L171.14 79.674H158.32L157.665 83.7964H171.413L169.994 92.5715H147.027L152.155 60.946C152.373 59.5915 153.464 58.5903 154.773 58.5903H175.505L174.086 67.3654H160.284V67.2476Z" fill="#26CFCC"/>
<path d="M240.153 73.0207C239.771 78.7922 237.698 83.5625 233.988 87.3317C230.224 91.1008 225.805 92.9854 220.567 92.9854C215.712 92.9854 212.002 91.3364 209.383 88.0384C206.765 84.7404 205.892 80.559 206.71 75.4942C207.529 70.4294 209.82 66.1891 213.475 62.95C217.13 59.652 221.386 58.0031 226.241 58.0031C230.169 58.0031 233.388 59.1809 236.007 61.5955C238.625 64.0101 239.989 67.0136 240.098 70.665H230.387C230.005 69.4283 229.351 68.3682 228.369 67.6615C227.387 66.9548 226.241 66.5425 224.823 66.5425C222.695 66.5425 220.786 67.367 219.149 69.0749C217.512 70.7239 216.476 72.9029 216.039 75.4942C215.603 78.0855 215.985 80.2056 217.076 81.9135C218.167 83.5625 219.804 84.4459 221.931 84.4459C223.35 84.4459 224.714 84.0926 225.914 83.327C227.169 82.6202 228.096 81.619 228.805 80.4412H222.531L223.35 75.4942C223.568 74.1397 224.659 73.1385 225.968 73.1385H240.153V73.0207Z" fill="#26CFCC"/>
<path d="M268.74 80.3816C268.14 84.0919 266.503 87.0954 263.83 89.4511C261.157 91.8069 257.992 92.9847 254.228 92.9847C250.736 92.9847 247.9 91.9835 245.663 89.9812C243.426 87.9788 242.335 85.4464 242.335 82.384C242.335 81.854 242.444 81.0295 242.608 79.9694L245.717 60.8292C245.936 59.4747 247.027 58.4735 248.336 58.4735H255.265L251.773 79.7338C251.718 80.0872 251.664 80.3228 251.664 80.6172C251.664 81.6184 251.991 82.384 252.591 82.9729C253.191 83.5619 254.01 83.9152 254.992 83.9152C256.137 83.9152 257.119 83.5618 257.992 82.7962C258.865 82.0306 259.411 81.0294 259.574 79.8516L263.066 58.5324H272.231L268.74 80.3816Z" fill="#26CFCC"/>
<path d="M284.724 67.248L284.07 71.3116H296.945L295.526 79.6744H282.76L282.106 83.7969H295.854L294.435 92.5719H271.467L276.814 59.7097C276.923 59.003 277.469 58.5319 278.123 58.5319H300L298.581 67.3069H284.724V67.248Z" fill="#26CFCC"/>
<path d="M157.392 109.838C157.338 109.779 157.229 109.72 157.12 109.779C156.574 110.074 156.301 110.545 156.029 111.016C151.119 119.673 146.427 126.093 141.244 131.157C136.934 135.398 132.952 137.871 128.642 138.99C123.186 140.404 118.003 137.577 115.712 132.041C113.475 126.564 113.039 120.674 112.93 116.14C112.712 108.484 113.475 100.298 115.276 91.1102C116.967 82.2174 118.767 74.3847 120.731 67.2586C123.132 58.3658 126.078 49.5908 128.369 42.9359C131.424 34.0431 135.243 25.9159 139.716 18.6721C143.317 12.9006 147.191 8.01247 151.61 3.77219C152.373 3.06547 153.083 2.35875 153.846 1.59315L154.828 0.650858C154.937 0.591965 154.937 0.415287 154.883 0.356394L154.774 0.120827C154.719 0.00304097 154.61 0.00305176 154.501 0.00305176C154.337 0.00305176 153.792 0.179727 153.574 0.238619C150.464 1.41648 147.463 3.24214 144.626 5.65675C139.389 10.1915 134.752 15.963 129.678 24.3847C125.532 31.2162 121.713 38.9901 117.949 48.1774C114.457 56.7168 112.002 63.9017 110.202 70.8511C108.62 76.8582 107.147 83.3953 105.51 91.5814C104.201 98.1185 103.492 105.068 103.328 112.959C103.219 119.084 103.492 124.09 104.255 128.743C104.856 132.394 105.783 137.106 108.02 141.464C110.147 145.586 112.766 148.118 116.149 149.296C117.458 149.767 118.767 149.944 120.077 150.003C122.586 150.003 125.259 149.237 128.151 147.647C132.351 145.351 136.279 141.935 140.644 136.929C145.772 130.981 150.3 123.914 155.428 114.137C155.919 113.195 156.356 112.312 156.847 111.369L157.502 110.074C157.447 110.074 157.447 109.956 157.392 109.838Z" fill="#007D83"/>
<path d="M111.784 48.2947C111.675 48.2358 111.566 48.2358 111.457 48.3535C97.0542 68.0826 92.6352 90.8153 97.9271 117.847C97.9271 117.965 98.0362 118.024 98.1453 118.024C98.1453 118.024 98.1453 118.024 98.1999 118.024C98.309 118.024 98.4181 117.906 98.4181 117.729C96.6723 87.6939 101.582 70.9095 111.893 48.5891C111.893 48.4713 111.893 48.3536 111.784 48.2947Z" fill="#007D83"/>
</svg>
